<?xml version="1.0" encoding="UTF-8" standalone="no"?>
<!DOCTYPE svg PUBLIC "-//W3C//DTD SVG 1.1//EN" "http://www.w3.org/Graphics/SVG/1.1/DTD/svg11.dtd">
<svg width="100%" height="100%" viewBox="0 0 1000 1000" version="1.1" xmlns="http://www.w3.org/2000/svg" xmlns:xlink="http://www.w3.org/1999/xlink" xml:space="preserve" xmlns:serif="http://www.serif.com/" style="fill-rule:evenodd;clip-rule:evenodd;stroke-linecap:round;stroke-linejoin:round;stroke-miterlimit:1.5;">
    <g transform="matrix(1.51473,0,0,1.51473,-312.66,-441.176)">
        <circle cx="536.504" cy="621.348" r="297.082" style="fill:none;stroke:black;stroke-width:36.68px;"/>
    </g>
    <g transform="matrix(1,0,0,1,0.330984,92.246)">
        <path d="M502.929,576.672C501.261,576.55 499.579,576.558 497.926,576.306C494.891,575.842 480.552,573.652 466.68,554.02C464,550.227 450.664,531.355 448.063,499.035C438.926,385.502 430.11,271.943 421.6,158.362C421.402,155.715 421.695,153.048 421.943,150.406C422.059,149.17 422.666,142.689 424.945,135.185C428.246,124.311 433.637,116.198 434.641,114.687C437.254,110.753 452.355,88.025 483.391,81.4C491.14,79.747 497.791,79.695 499.051,79.685C500.313,79.675 506.983,79.623 514.756,81.156C545.892,87.297 561.345,109.787 564.019,113.68C565.046,115.175 570.562,123.203 574.033,134.025C576.427,141.49 577.136,147.963 577.271,149.197C577.56,151.832 577.895,154.49 577.738,157.136C570.997,270.837 563.633,384.499 556.581,498.18C554.582,530.401 541.443,549.624 538.822,553.458C525.258,573.301 510.953,575.717 507.926,576.228C507.917,576.229 502.933,576.672 502.929,576.672Z"/>
    </g>
    <g transform="matrix(0.994286,0,0,0.994286,-29.2959,47.0953)">
        <circle cx="531.831" cy="728.78" r="30.172" style="stroke:black;stroke-width:77.37px;"/>
    </g>
</svg>
