<?xml version="1.0" encoding="UTF-8" standalone="no"?>
<!DOCTYPE svg PUBLIC "-//W3C//DTD SVG 1.1//EN" "http://www.w3.org/Graphics/SVG/1.1/DTD/svg11.dtd">
<svg width="100%" height="100%" viewBox="0 0 800 800" version="1.1" xmlns="http://www.w3.org/2000/svg" xmlns:xlink="http://www.w3.org/1999/xlink" xml:space="preserve" xmlns:serif="http://www.serif.com/" style="fill-rule:evenodd;clip-rule:evenodd;stroke-linejoin:round;stroke-miterlimit:2;">
    <g id="SVGRepo_iconCarrier">
        <path d="M759.975,582.084C780.663,601.393 793.076,627.598 793.076,656.562C793.076,684.146 782.043,710.351 759.975,731.039L692.394,797.242C689.635,798.621 686.877,800 682.739,800C678.601,800 675.843,798.621 673.085,795.862L604.124,729.66C583.436,710.351 572.402,684.146 572.402,655.182C572.402,627.598 583.436,601.393 605.503,580.705C648.259,542.087 717.22,542.087 759.975,582.084ZM765.492,655.182C765.492,634.494 757.217,616.564 742.045,601.393C725.495,586.222 703.427,579.326 682.739,579.326C662.051,579.326 639.983,586.222 623.433,602.772C608.261,616.564 599.986,635.873 599.986,656.562C599.986,677.25 608.261,696.559 623.433,710.351L682.739,768.278L742.045,711.73C757.217,695.18 765.492,675.871 765.492,655.182Z" style="fill-rule:nonzero;"/>
        <g>
            <path d="M682.739,606.91C713.082,606.91 737.908,631.736 737.908,662.078C737.908,692.421 713.082,717.247 682.739,717.247C652.396,717.247 627.571,692.421 627.571,662.078C627.571,631.736 652.396,606.91 682.739,606.91ZM710.323,662.078C710.323,646.907 697.91,634.494 682.739,634.494C667.568,634.494 655.155,646.907 655.155,662.078C655.155,677.25 667.568,689.663 682.739,689.663C697.91,689.663 710.323,677.25 710.323,662.078Z" style="fill-rule:nonzero;"/>
            <rect x="572.402" y="772.416" width="27.584" height="27.584"/>
            <path d="M593.09,437.266C597.228,446.921 599.986,457.955 599.986,468.988C599.986,480.022 597.228,489.677 593.09,500.71L568.264,489.677C571.023,482.78 572.402,475.884 572.402,468.988C572.402,462.092 571.023,455.196 568.264,448.3L593.09,437.266Z" style="fill-rule:nonzero;"/>
            <path d="M548.955,393.132L537.922,417.957C531.025,415.199 524.129,413.82 515.854,413.82L488.27,413.82L488.27,386.235L515.854,386.235C528.267,386.235 539.301,388.994 548.955,393.132Z" style="fill-rule:nonzero;"/>
            <path d="M539.301,520.019L550.334,544.845C539.301,548.983 528.267,551.741 517.233,551.741L489.649,551.741L489.649,524.157L517.233,524.157C524.129,524.157 532.405,522.778 539.301,520.019Z" style="fill-rule:nonzero;"/>
            <rect x="457.927" y="772.416" width="57.927" height="27.584"/>
        </g>
        <rect x="401.379" y="386.235" width="44.135" height="27.584"/>
        <g>
            <rect x="362.761" y="524.157" width="63.444" height="27.584"/>
            <rect x="343.452" y="772.416" width="56.548" height="27.584"/>
            <rect x="313.109" y="386.235" width="44.135" height="27.584"/>
            <rect x="235.873" y="524.157" width="63.444" height="27.584"/>
            <rect x="228.977" y="772.416" width="57.927" height="27.584"/>
            <g transform="matrix(-0.7413,0.6712,-0.6712,-0.7413,592.41,234.022)">
                <rect x="220.759" y="217.392" width="60.687" height="27.584"/>
            </g>
            <path d="M268.975,386.235L268.975,413.82L241.39,413.82C230.357,413.82 219.323,411.061 209.668,406.924L220.702,382.098C227.598,384.856 234.494,386.235 242.769,386.235L268.975,386.235Z" style="fill-rule:nonzero;"/>
            <path d="M172.429,285.553L195.876,300.724C188.98,310.379 186.222,320.033 186.222,331.067C186.222,336.584 187.601,342.101 188.98,347.617L162.775,355.893C160.017,347.617 158.637,339.342 158.637,331.067C158.637,314.516 162.775,299.345 172.429,285.553Z" style="fill-rule:nonzero;"/>
            <path d="M172.429,772.416L172.429,800L144.845,800C135.191,800 124.157,798.621 114.502,797.242L120.019,769.657C128.295,771.036 136.57,772.416 144.845,772.416L172.429,772.416Z" style="fill-rule:nonzero;"/>
            <path d="M172.429,524.157L172.429,551.741L144.845,551.741C136.57,551.741 128.295,553.12 120.019,554.5L114.502,526.915C124.157,524.157 135.191,524.157 144.845,524.157L172.429,524.157Z" style="fill-rule:nonzero;"/>
            <path d="M66.23,548.983L82.78,571.05C70.368,579.326 60.713,588.98 53.817,601.393L30.37,586.222C38.646,572.429 51.059,558.637 66.23,548.983Z" style="fill-rule:nonzero;"/>
            <path d="M81.401,753.107L66.23,775.174C51.059,765.52 38.646,751.727 28.991,736.556L52.438,721.385C60.713,733.798 70.368,744.831 81.401,753.107Z" style="fill-rule:nonzero;"/>
            <path d="M9.682,635.873L37.266,641.39C35.887,648.286 34.508,655.182 34.508,662.078C34.508,668.975 35.887,675.871 37.266,682.767L9.682,688.284C8.303,680.008 6.924,671.733 6.924,662.078C6.924,653.803 8.303,644.149 9.682,635.873Z" style="fill-rule:nonzero;"/>
        </g>
        <g transform="matrix(0.277331,0,0,0.277331,240.037,3.88417)">
            <path d="M515.09,725.824L472.006,824.503C455.444,862.434 402.954,862.434 386.393,824.503L343.308,725.824C304.966,638.006 235.953,568.104 149.868,529.892L31.278,477.251C-6.426,460.515 -6.426,405.665 31.278,388.929L146.164,337.932C234.463,298.737 304.714,226.244 342.401,135.431L386.044,30.269C402.239,-8.756 456.159,-8.756 472.355,30.269L515.998,135.432C553.685,226.244 623.935,298.737 712.234,337.932L827.121,388.929C864.825,405.665 864.825,460.515 827.121,477.251L708.53,529.892C622.446,568.104 553.433,638.006 515.09,725.824Z" style="fill-rule:nonzero;"/>
        </g>
        <g transform="matrix(0.277331,0,0,0.277331,240.037,3.88417)">
            <path d="M915.485,1036.98L903.367,1064.75C894.499,1085.08 866.349,1085.08 857.481,1064.75L845.364,1036.98C823.765,987.465 784.862,948.042 736.318,926.475L698.987,909.889C678.802,900.921 678.802,871.578 698.987,862.61L734.231,846.951C784.023,824.829 823.623,783.947 844.851,732.75L857.294,702.741C865.966,681.826 894.882,681.826 903.554,702.741L915.997,732.75C937.225,783.947 976.826,824.829 1026.62,846.951L1061.86,862.61C1082.05,871.578 1082.05,900.921 1061.86,909.889L1024.53,926.475C975.987,948.042 937.083,987.465 915.485,1036.98Z" style="fill-rule:nonzero;"/>
        </g>
    </g>
</svg>
